HIERARCHY
ROOT Hips
{
	OFFSET 0.000000 0.000000 0.000000
	CHANNELS 6 Xposition Yposition Zposition Zrotation Yrotation Xrotation 
	JOINT LHipJoint
	{
		OFFSET 0.000000 0.000000 0.000000
		CHANNELS 3 Zrotation Yrotation Xrotation
		JOINT LeftUpLeg
		{
			OFFSET 1.363060 -1.794630 0.839290
			CHANNELS 3 Zrotation Yrotation Xrotation
			JOINT LeftLeg
			{
				OFFSET 2.448110 -6.726130 0.000000
				CHANNELS 3 Zrotation Yrotation Xrotation
				JOINT LeftFoot
				{
					OFFSET 2.562200 -7.039590 0.000000
					CHANNELS 3 Zrotation Yrotation Xrotation
					JOINT LeftToeBase
					{
						OFFSET 0.157640 -0.433110 2.322550
						CHANNELS 3 Zrotation Yrotation Xrotation
						End Site
						{
							OFFSET 0.000000 0.000000 0.000000
						}
					}
				}
			}
		}
	}
	JOINT RHipJoint
	{
		OFFSET 0.000000 0.000000 0.000000
		CHANNELS 3 Zrotation Yrotation Xrotation
		JOINT RightUpLeg
		{
			OFFSET -1.305520 -1.794630 0.839290
			CHANNELS 3 Zrotation Yrotation Xrotation
			JOINT RightLeg
			{
				OFFSET -2.542530 -6.985550 0.000000
				CHANNELS 3 Zrotation Yrotation Xrotation
				JOINT RightFoot
				{
					OFFSET -2.568260 -7.056230 0.000000
					CHANNELS 3 Zrotation Yrotation Xrotation
					JOINT RightToeBase
					{
						OFFSET -0.164730 -0.452590 2.363150
						CHANNELS 3 Zrotation Yrotation Xrotation
						End Site
						{
							OFFSET 0.000000 0.000000 0.000000
						}
					}
				}
			}
		}
	}
	JOINT LowerBack
	{
		OFFSET 0.000000 0.000000 0.000000
		CHANNELS 3 Zrotation Yrotation Xrotation
		JOINT Spine
		{
			OFFSET 0.028270 2.035590 -0.193380
			CHANNELS 3 Zrotation Yrotation Xrotation
			JOINT Spine1
			{
				OFFSET 0.056720 2.048850 -0.042750
				CHANNELS 3 Zrotation Yrotation Xrotation
				JOINT Neck
				{
					OFFSET 0.000000 0.000000 0.000000
					CHANNELS 3 Zrotation Yrotation Xrotation
					JOINT Neck1
					{
						OFFSET -0.054170 1.746240 0.172020
						CHANNELS 3 Zrotation Yrotation Xrotation
						JOINT Head
						{
							OFFSET 0.104070 1.761360 -0.123970
							CHANNELS 3 Zrotation Yrotation Xrotation
							End Site
							{
								OFFSET 0.000000 0.000000 0.000000
							}
						}
					}
				}
				JOINT LeftShoulder
				{
					OFFSET 0.000000 0.000000 0.000000
					CHANNELS 3 Zrotation Yrotation Xrotation
					JOINT LeftArm
					{
						OFFSET 3.362410 1.200890 -0.311210
						CHANNELS 3 Zrotation Yrotation Xrotation
						JOINT LeftForeArm
						{
							OFFSET 4.983000 -0.000000 -0.000000
							CHANNELS 3 Zrotation Yrotation Xrotation
							JOINT LeftHand
							{
								OFFSET 3.483560 -0.000000 -0.000000
								CHANNELS 3 Zrotation Yrotation Xrotation
								JOINT LeftFingerBase
								{
									OFFSET 0.000000 0.000000 0.000000
									CHANNELS 3 Zrotation Yrotation Xrotation
									JOINT LeftHandIndex1
									{
										OFFSET 0.715260 -0.000000 -0.000000
										CHANNELS 3 Zrotation Yrotation Xrotation
										End Site
										{
											OFFSET 0.000000 0.000000 0.000000
										}
									}
								}
								JOINT LThumb
								{
									OFFSET 0.000000 0.000000 0.000000
									CHANNELS 3 Zrotation Yrotation Xrotation
									End Site
									{
										OFFSET 0.000000 0.000000 0.000000
									}
								}
							}
						}
					}
				}
				JOINT RightShoulder
				{
					OFFSET 0.000000 0.000000 0.000000
					CHANNELS 3 Zrotation Yrotation Xrotation
					JOINT RightArm
					{
						OFFSET -3.136600 1.374050 -0.404650
						CHANNELS 3 Zrotation Yrotation Xrotation
						JOINT RightForeArm
						{
							OFFSET -5.241900 -0.000000 -0.000000
							CHANNELS 3 Zrotation Yrotation Xrotation
							JOINT RightHand
							{
								OFFSET -3.444170 -0.000000 -0.000000
								CHANNELS 3 Zrotation Yrotation Xrotation
								JOINT RightFingerBase
								{
									OFFSET 0.000000 0.000000 0.000000
									CHANNELS 3 Zrotation Yrotation Xrotation
									JOINT RightHandIndex1
									{
										OFFSET -0.622530 -0.000000 -0.000000
										CHANNELS 3 Zrotation Yrotation Xrotation
										End Site
										{
											OFFSET 0.000000 0.000000 0.000000
										}
									}
								}
								JOINT RThumb
								{
									OFFSET 0.000000 0.000000 0.000000
									CHANNELS 3 Zrotation Yrotation Xrotation
									End Site
									{
										OFFSET 0.000000 0.000000 0.000000
									}
								}
							}
						}
					}
				}
			}
		}
	}
}
MOTION
Frames: 12
Frame Time: 0.008333
1.399773 16.606642 -0.408957 -3.627319 80.196634 -0.076931 -9.921842 1.140310 0.613571 -20.448361 12.276248 -36.434647 -2.284143 0.800608 29.608443 2.904851 13.998625 -14.164631 178.500900 -0.000000 -6.039700 10.882013 -4.146703 -1.265761 -8.388344 -17.222520 -0.132125 -0.067451 -2.860261 40.356955 -0.166416 16.362772 24.561185 8.589900 0.000000 -94.274100 -3.824844 2.896255 -1.694171 -1.069592 3.092506 -3.640316 -3.568672 2.944692 -1.226127 3.547068 -3.964360 -9.303322 -0.981121 -0.058452 -0.417173 0.000000 0.000000 0.000000 -7.913595 19.329570 3.126433 -70.015859 39.340867 -10.655308 -5.236081 -2.657195 -0.023992 1.821545 10.036038 0.174277 -0.150809 -0.112424 -0.000000 0.000000 0.000000 0.000000 0.000000 0.000000 0.000000 -1.870414 3.483665 -0.936677 23.426156 45.926635 1.477959 -0.392113 68.408355 -0.006312 0.604476 4.111944 0.029718 -0.147566 -0.478832 -0.000000 0.000000 0.000000 0.000000 0.000000 0.000000 0.000000 
1.563544 16.532101 -0.443149 -2.058701 80.115897 1.281476 -9.935697 1.165785 0.389496 -20.853177 12.647740 -37.014628 -2.244265 1.039073 32.354801 2.864694 13.669145 -15.071370 178.254100 0.000000 -6.574300 11.023739 -3.963195 -1.334021 -9.322651 -17.435120 -1.692092 -0.300550 -3.002479 44.012733 -0.440480 15.011478 26.471552 8.465500 -0.000000 -92.441200 -4.248922 2.717554 -1.427172 -1.176750 2.941962 -3.616355 -3.725377 2.795725 -1.307576 4.054494 -3.745685 -9.315193 -1.093062 -0.066852 -0.428221 0.000000 0.000000 0.000000 -7.863643 19.017917 3.255151 -70.757197 38.998125 -9.278867 -5.238987 -3.071442 -0.026678 1.091567 10.923352 0.118639 -0.145239 -0.114752 -0.000000 0.000000 0.000000 0.000000 0.000000 0.000000 0.000000 -0.965020 3.774012 -0.880614 23.926146 46.054338 0.803256 -0.378423 68.441143 -0.006708 0.593098 4.209585 0.030136 -0.149963 -0.487394 -0.000000 0.000000 0.000000 0.000000 0.000000 0.000000 0.000000 
1.721730 16.456480 -0.477773 -0.450181 80.040937 2.701045 -9.937555 1.180849 0.164817 -21.271550 12.943415 -37.484543 -2.206793 1.251362 34.919323 2.842096 13.381568 -16.134165 177.973300 -0.000001 -7.006999 11.161483 -3.748203 -1.409932 -10.165908 -17.533447 -3.324745 -0.517244 -3.155167 47.734249 -0.733599 12.845890 28.022848 7.730601 0.000000 -89.368100 -4.663749 2.519064 -1.131465 -1.280668 2.771582 -3.588094 -3.883222 2.627923 -1.397352 4.540916 -3.479055 -9.323560 -1.216436 -0.076149 -0.439863 0.000000 0.000000 0.000000 -7.879190 18.720397 3.389272 -71.416230 38.486172 -7.570919 -5.227142 -3.625022 -0.029127 0.243582 11.752549 0.038706 -0.138680 -0.116448 -0.000000 0.000000 0.000000 0.000000 0.000000 0.000000 0.000000 -0.046773 4.126771 -0.819800 24.563792 46.154645 0.128179 -0.363219 68.517505 -0.007093 0.598992 4.344523 0.031457 -0.152892 -0.496761 -0.000000 0.000000 0.000000 0.000000 0.000000 0.000000 0.000000 
1.874776 16.381401 -0.513182 1.171414 79.979436 4.156777 -9.925635 1.188706 -0.054704 -21.703115 13.141025 -37.813415 -2.172380 1.435029 37.253838 2.844858 13.179632 -17.330801 177.658300 -0.000000 -7.345600 11.296644 -3.510236 -1.491382 -10.910158 -17.514334 -5.016937 -0.719829 -3.325599 51.478502 -1.037774 9.974093 29.049098 6.405000 0.000000 -85.131200 -5.061860 2.304964 -0.813914 -1.380139 2.585076 -3.556317 -4.040741 2.445043 -1.493346 4.999780 -3.174245 -9.326767 -1.350622 -0.086316 -0.451623 0.000000 0.000000 0.000000 -7.945746 18.439640 3.525745 -71.959206 37.774672 -5.624057 -5.196720 -4.251455 -0.031103 -0.661091 12.464293 -0.059520 -0.131458 -0.116973 -0.000000 0.000000 0.000000 0.000000 0.000000 0.000000 0.000000 0.875975 4.532441 -0.754922 25.363749 46.203944 -0.527973 -0.346190 68.649734 -0.007661 0.596906 4.524562 0.032783 -0.155811 -0.507027 -0.000000 0.000000 0.000000 0.000000 0.000000 0.000000 0.000000 
2.023495 16.308624 -0.549707 2.788850 79.937279 5.636433 -9.898686 1.193187 -0.262068 -22.149285 13.222776 -37.985296 -2.141699 1.589270 39.323639 2.878474 13.096388 -18.629772 177.307700 0.000000 -7.608000 11.430584 -3.259824 -1.573817 -11.549266 -17.376413 -6.762100 -0.915241 -3.518853 55.194634 -1.342173 6.606586 29.419489 4.631201 -0.000000 -79.999400 -5.439516 2.080017 -0.487170 -1.475138 2.386829 -3.520600 -4.196916 2.251604 -1.583735 5.434225 -2.858867 -9.331389 -1.495405 -0.097232 -0.465358 0.000000 0.000000 0.000000 -8.023028 18.207157 3.662943 -72.361094 36.791135 -3.532914 -5.143068 -4.843364 -0.032324 -1.537008 12.997025 -0.163636 -0.123867 -0.115825 -0.000000 0.000000 0.000000 0.000000 0.000000 0.000000 0.000000 1.811888 4.964462 -0.689217 26.319754 46.199206 -1.137567 -0.328037 68.841849 -0.008855 0.532952 4.761196 0.031518 -0.157733 -0.518390 0.000000 0.000000 0.000000 0.000000 0.000000 0.000000 0.000000 
2.168786 16.240107 -0.587693 4.367084 79.919200 7.110667 -9.857467 1.197202 -0.450769 -22.605157 13.180530 -37.996919 -2.114839 1.714567 41.106997 2.944967 13.149583 -19.989793 176.921200 0.000001 -7.820300 11.563275 -3.008691 -1.650374 -12.070359 -17.112632 -8.554930 -1.112814 -3.735737 58.824039 -1.633453 3.027494 29.073665 2.646000 0.000001 -74.360899 -5.786381 1.853325 -0.166505 -1.564221 2.185160 -3.484562 -4.350371 2.055650 -1.670566 5.837445 -2.535514 -9.331587 -1.648837 -0.108838 -0.479179 0.000000 0.000000 0.000000 -8.108747 18.003356 3.796265 -72.607509 35.546186 -1.402603 -5.067566 -5.376342 -0.032639 -2.310018 13.322512 -0.259638 -0.116209 -0.112664 -0.000000 0.000000 0.000000 0.000000 0.000000 0.000000 0.000000 2.742149 5.419314 -0.622235 27.476427 46.083286 -1.680072 -0.306703 69.118806 -0.010871 0.383348 5.057489 0.026162 -0.157954 -0.530783 0.000000 0.000000 0.000000 0.000000 0.000000 0.000000 0.000000 
2.311754 16.177804 -0.627408 5.880178 79.930055 8.562186 -9.803310 1.203195 -0.614258 -23.067240 13.011585 -37.858482 -2.091545 1.812313 42.594332 3.043160 13.341536 -21.363425 176.500800 -0.000000 -8.005700 11.694288 -2.767030 -1.712502 -12.462895 -16.717911 -10.395319 -1.320626 -3.971932 62.309431 -1.897530 -0.458051 28.035972 0.717300 0.000000 -68.626600 -6.096129 1.633222 0.129861 -1.646819 1.987807 -3.450320 -4.499607 1.864701 -1.747215 6.209012 -2.220262 -9.329778 -1.808497 -0.120903 -0.493530 0.000000 0.000000 0.000000 -8.179305 17.838225 3.923398 -72.694461 34.011611 0.667087 -4.971134 -5.798976 -0.031908 -2.895469 13.420667 -0.331824 -0.108702 -0.107209 -0.000000 0.000000 0.000000 0.000000 0.000000 0.000000 0.000000 3.656019 5.879656 -0.557201 28.851432 45.816395 -2.135034 -0.281189 69.494682 -0.014011 0.111374 5.417802 0.013717 -0.155622 -0.544133 0.000000 0.000000 0.000000 0.000000 0.000000 0.000000 0.000000 
2.453464 16.123449 -0.668983 7.308369 79.975577 9.981114 -9.738070 1.212579 -0.747255 -23.530857 12.720107 -37.589219 -2.071376 1.884369 43.785762 3.168456 13.657960 -22.700899 176.053800 -0.000000 -8.189300 11.822613 -2.542354 -1.751207 -12.718177 -16.188845 -12.284408 -1.542537 -4.218814 65.597787 -2.121271 -3.585492 26.399434 -0.928800 -0.000000 -63.111300 -6.365515 1.426778 0.384157 -1.723307 1.801375 -3.418179 -4.645096 1.685242 -1.800175 6.558329 -1.945718 -9.336517 -1.973067 -0.133170 -0.511164 0.000000 0.000000 0.000000 -8.205923 17.741845 4.040677 -72.624753 32.144806 2.592792 -4.854809 -6.067852 -0.030077 -3.215238 13.288645 -0.366690 -0.101415 -0.099311 -0.000000 0.000000 0.000000 0.000000 0.000000 0.000000 0.000000 4.563855 6.310990 -0.497510 30.416051 45.388481 -2.478184 -0.251402 69.965719 -0.018724 -0.335321 5.846474 -0.010513 -0.149630 -0.558297 -0.000000 0.000000 0.000000 0.000000 0.000000 0.000000 0.000000 
2.594828 16.078583 -0.712454 8.623780 80.063575 11.346751 -9.665031 1.225551 -0.847181 -23.986105 12.321544 -37.212532 -2.054012 1.932858 44.690077 3.312324 14.065749 -23.953548 175.594499 0.000000 -8.383500 11.945866 -2.339711 -1.758594 -12.828080 -15.524432 -14.217853 -1.776819 -4.465079 68.641146 -2.294100 -6.172373 24.297812 -2.153700 0.000000 -58.033600 -6.585584 1.242591 0.582911 -1.791989 1.633839 -3.391296 -4.784769 1.524755 -1.830654 6.876337 -1.709198 -9.349562 -2.137117 -0.145227 -0.531009 0.000000 0.000000 0.000000 -8.191903 17.706535 4.144741 -72.406818 29.965000 4.298268 -4.723364 -6.206791 -0.027236 -3.216410 12.939831 -0.357635 -0.094363 -0.088984 -0.000000 0.000000 0.000000 0.000000 0.000000 0.000000 0.000000 5.424975 6.710365 -0.448385 32.213972 44.728939 -2.709756 -0.215539 70.544939 -0.024915 -0.947912 6.335942 -0.048929 -0.139874 -0.572737 -0.000000 0.000000 0.000000 0.000000 0.000000 0.000000 0.000000 
2.736672 16.044477 -0.757658 9.818882 80.204261 12.657392 -9.586883 1.241886 -0.913515 -24.424262 11.835822 -36.751001 -2.039759 1.959553 45.318419 3.464007 14.519720 -25.078623 175.143900 0.000000 -8.592800 12.061762 -2.161175 -1.729034 -12.793358 -14.730852 -16.186494 -2.016358 -4.699506 71.397703 -2.407938 -8.118769 21.871743 -2.910600 0.000000 -53.460400 -6.754663 1.085540 0.717053 -1.853285 1.489805 -3.369397 -4.920648 1.387608 -1.830090 7.171091 -1.536172 -9.378680 -2.298314 -0.156744 -0.555516 0.000000 0.000000 0.000000 -8.129701 17.751497 4.229509 -72.051942 27.464427 5.716341 -4.580118 -6.237540 -0.023568 -2.859384 12.386611 -0.303561 -0.087393 -0.076430 -0.000000 0.000000 0.000000 0.000000 0.000000 0.000000 0.000000 6.242529 7.045906 -0.413293 34.203459 43.827624 -2.823601 -0.173931 71.210985 -0.032685 -1.746060 6.879788 -0.105828 -0.125847 -0.586880 -0.000000 0.000000 0.000000 0.000000 0.000000 0.000000 0.000000 
2.879523 16.021937 -0.804385 10.890661 80.410004 13.911669 -9.506619 1.261113 -0.948877 -24.834578 11.290282 -36.221780 -2.029779 1.966022 45.683831 3.610768 14.963554 -26.042373 174.728500 0.000000 -8.806400 12.167489 -2.006862 -1.660059 -12.619862 -13.819356 -18.171892 -2.249944 -4.912316 73.829085 -2.457945 -9.397642 19.255143 -3.228999 0.000000 -49.400400 -6.868807 0.959599 0.784807 -1.906519 1.372969 -3.352922 -5.053758 1.277128 -1.798976 7.440302 -1.430377 -9.426239 -2.452156 -0.167311 -0.584977 0.000000 0.000000 0.000000 -8.029805 17.877117 4.289208 -71.573259 24.669658 6.807881 -4.429561 -6.225794 -0.019385 -2.137060 11.638791 -0.211470 -0.080275 -0.062115 -0.000000 0.000000 0.000000 0.000000 0.000000 0.000000 0.000000 6.992830 7.304651 -0.397157 36.375810 42.650406 -2.833593 -0.127010 71.941149 -0.041718 -2.706584 7.462571 -0.183210 -0.107879 -0.599886 -0.000000 0.000000 0.000000 0.000000 0.000000 0.000000 0.000000 
3.023717 16.011480 -0.852387 11.853928 80.694712 15.121681 -9.426532 1.282778 -0.958312 -25.206522 10.715378 -35.634027 -2.026126 1.953308 45.797259 3.739804 15.338182 -26.822962 174.376500 -0.000000 -9.005700 12.260591 -1.875180 -1.552380 -12.321898 -12.806795 -20.147043 -2.464107 -5.096329 75.900174 -2.443114 -10.036596 16.569480 -3.189099 0.000000 -45.839800 -6.926335 0.866212 0.790764 -1.951423 1.284635 -3.341426 -5.186537 1.194329 -1.740012 7.683995 -1.395541 -9.494157 -2.594899 -0.176582 -0.619599 0.000000 0.000000 0.000000 -7.907628 18.077792 4.317472 -70.986095 21.621544 7.562195 -4.276326 -6.262920 -0.015100 -1.076028 10.700965 -0.094868 -0.072769 -0.046816 -0.000000 0.000000 0.000000 0.000000 0.000000 0.000000 0.000000 7.661350 7.472516 -0.403128 38.703578 41.181065 -2.760309 -0.076377 72.694742 -0.051557 -3.798009 8.063271 -0.281582 -0.086578 -0.610810 -0.000000 0.000000 0.000000 0.000000 0.000000 0.000000 0.000000 
